<svg width="30" height="23" viewBox="0 0 30 23" fill="none" xmlns="http://www.w3.org/2000/svg">
<path fill-rule="evenodd" clip-rule="evenodd" d="M1.52588e-05 0.372519V22.279V22.279C1.52588e-05 22.558 0.386134 22.5313 0.665111 22.5313H4.06476C4.20604 22.5313 4.36966 22.5363 4.45292 22.4221V22.4221C4.53216 22.3135 4.4997 22.1634 4.4997 22.0289V16.2847C4.4997 15.7925 4.90118 15.3617 5.39027 15.4174V15.4174C5.60119 15.4415 5.92929 15.4415 6.43316 15.4415C8.14398 15.4415 9.70247 15.2492 11.1086 14.7205C12.4562 14.2158 13.6163 13.3145 14.4482 12.1249C15.2802 10.9352 15.6903 9.42111 15.6903 7.59457C15.6903 6.64525 15.5263 5.71996 15.2099 4.83072C14.8818 3.91745 14.3662 3.0883 13.6983 2.40334C12.9132 1.62226 11.964 1.02142 10.9211 0.66092C9.76106 0.216301 8.34319 0 6.64409 0C6.02304 0 5.40198 0 4.7575 0.0240331C4.4463 0.035638 4.14603 0.0416394 3.85537 0.0474491C3.54408 0.0536715 3.24381 0.0596729 2.95294 0.0721011C2.67969 0.0837765 2.4175 0.0897798 2.16235 0.0956225C1.89229 0.101806 1.6301 0.10781 1.37101 0.120167C0.890578 0.1442 0.562475 0.1442 0.210937 0.1442C0.0586032 0.1442 1.52588e-05 0.228319 1.52588e-05 0.372519ZM4.5935 11.4097C4.55374 11.4064 4.52314 11.3732 4.52314 11.3333V5.0424C4.52314 4.58695 4.82483 4.20399 5.27926 4.23434V4.23434C5.32508 4.2374 5.40152 4.24038 5.44738 4.23793C5.82166 4.21787 6.27721 4.21787 6.7847 4.21787C7.64011 4.19384 8.46037 4.314 9.23375 4.63845C9.83136 4.87879 10.3352 5.29937 10.6868 5.85214C11.0266 6.42894 11.1906 7.08986 11.1672 7.75078C11.1672 8.67607 10.9563 9.40909 10.5227 9.93783C10.0657 10.4666 9.49154 10.8751 8.82362 11.0674C8.05024 11.3198 7.2417 11.4519 6.43316 11.4519H5.33168C5.10543 11.4519 4.85937 11.4316 4.5935 11.4097V11.4097Z" fill="url(#paint0_linear_2_347)"/>
<path d="M26.6583 9.38506C27.3614 9.52926 28.0293 9.76959 28.6504 10.1061C28.6897 10.1291 28.7344 10.1411 28.7922 10.1421C28.9555 10.1447 29.1425 10.053 29.1425 9.88976V9.88976V6.41693V6.41693C29.1425 6.24586 29.0712 6.05795 28.9167 5.98461C28.9061 5.97958 28.8954 5.97544 28.8847 5.97231C28.334 5.73197 27.7247 5.56374 27.1036 5.47962C26.2482 5.34744 25.3811 5.28736 24.5257 5.28736C23.0492 5.28736 21.8188 5.51567 20.8462 6.03239C19.9557 6.45298 19.1823 7.13793 18.6667 7.99112C18.2097 8.77221 17.9636 9.64942 17.9636 10.5627C17.9402 11.3077 18.116 12.0528 18.4441 12.7377C18.8425 13.4707 19.3815 14.0836 20.026 14.5522C20.94 15.2012 21.9243 15.7059 22.9789 16.0904C23.9984 16.4869 24.6897 16.8114 25.0178 17.0878C25.3576 17.3642 25.5217 17.6405 25.5217 17.941C25.5217 18.3135 25.2873 18.686 24.9592 18.8302C24.5843 19.0225 24.0218 19.1306 23.2367 19.1306C22.4047 19.1306 21.5727 19.0225 20.7876 18.8062C19.8736 18.5899 19.0182 18.2534 18.2097 17.7607C18.1511 17.7126 18.0808 17.6886 18.0222 17.7367C17.9636 17.7847 17.9402 17.8689 17.9402 17.9289V21.6301C17.9167 21.8103 18.0222 21.9545 18.1628 22.0387C18.8307 22.3631 19.5573 22.5914 20.2838 22.7236C21.2212 22.9159 22.1586 23 23.1078 23C24.6077 23 25.8498 22.7597 26.8692 22.315C27.795 21.9305 28.6035 21.2696 29.1894 20.4164C29.7284 19.5873 30.0214 18.5778 29.9979 17.5805C30.0214 16.8234 29.8456 16.0784 29.5175 15.3934C29.1191 14.6724 28.5566 14.0716 27.877 13.627C26.881 12.9901 25.8029 12.4613 24.678 12.0768C24.1741 11.8725 23.682 11.6322 23.2015 11.3798C22.932 11.2236 22.6859 11.0313 22.4985 10.803C22.3696 10.6348 22.2875 10.4425 22.2875 10.2503C22.2875 10.058 22.3461 9.84169 22.4516 9.67346C22.5922 9.46918 22.8266 9.31296 23.0961 9.25287C23.4828 9.15674 23.928 9.08464 24.3382 9.10867C25.1233 9.10867 25.8849 9.21683 26.6583 9.38506Z" fill="url(#paint1_linear_2_347)"/>
<defs>
<linearGradient id="paint0_linear_2_347" x1="1.52588e-05" y1="0" x2="22.2114" y2="28.9713" gradientUnits="userSpaceOnUse">
<stop stop-color="#EC8282"/>
<stop offset="1" stop-color="#82B3EC"/>
</linearGradient>
<linearGradient id="paint1_linear_2_347" x1="1.52588e-05" y1="0" x2="22.2114" y2="28.9713" gradientUnits="userSpaceOnUse">
<stop stop-color="#EC8282"/>
<stop offset="1" stop-color="#82B3EC"/>
</linearGradient>
</defs>
</svg>
