<svg width="30" height="30" viewBox="0 0 30 30" fill="none" xmlns="http://www.w3.org/2000/svg">
<path d="M28.9704 3.20349L22.7925 0.195609C22.0437 -0.180375 21.2013 0.00761713 20.6396 0.571594L8.84557 11.4751L3.69736 7.52731C3.22934 7.15132 2.57412 7.15132 2.1061 7.6213L0.421232 9.12524C-0.14039 9.59522 -0.14039 10.4412 0.421232 11.0052L4.91421 15.047L0.421232 19.0888C-0.14039 19.5588 -0.14039 20.4048 0.421232 20.9688L2.1061 22.4727C2.57412 22.8487 3.22934 22.9427 3.69736 22.5667L8.84557 18.6188L20.6396 29.4284C21.2013 29.9924 22.0437 30.1804 22.7925 29.8044L28.9704 26.7965C29.6256 26.5145 30 25.8566 30 25.1046V4.89542C30 4.23744 29.6256 3.57947 28.9704 3.20349ZM22.5117 21.9087L13.5258 15.047L22.5117 8.18528V21.9087Z" fill="url(#paint0_linear_2_373)"/>
<defs>
<linearGradient id="paint0_linear_2_373" x1="1.52588e-05" y1="0" x2="30" y2="30" gradientUnits="userSpaceOnUse">
<stop stop-color="#EC8282"/>
<stop offset="1" stop-color="#82B3EC"/>
</linearGradient>
</defs>
</svg>
