<svg width="28" height="24" viewBox="0 0 28 24" fill="none" xmlns="http://www.w3.org/2000/svg">
<path d="M23.4832 4.5674C23.9873 5.05374 24.6593 5.32863 25.3524 5.30749C26.0665 5.34978 26.7806 5.07489 27.2637 4.5674C27.7678 4.03877 28.0198 3.34097 27.9988 2.62203C28.0198 1.92423 27.7678 1.24758 27.3057 0.740088C26.8436 0.253745 26.2136 0 25.3944 0C24.7014 0 24.0293 0.253745 23.5252 0.740088C23.0211 1.22643 22.7481 1.90308 22.7691 2.62203C22.7481 3.34097 23.0001 4.03877 23.4832 4.5674Z" fill="url(#paint0_linear_2_350)"/>
<path d="M23.0001 7.37974V23.6617C23.0001 23.8731 23.1051 24 23.3152 24H27.4317C27.6207 24 27.7048 23.8943 27.7048 23.6617V7.37974C27.7048 7.18943 27.6207 7.0837 27.4317 7.0837H23.2732C23.0841 7.0837 23.0001 7.16828 23.0001 7.37974Z" fill="url(#paint1_linear_2_350)"/>
<path fill-rule="evenodd" clip-rule="evenodd" d="M6.19786 18.6291H14.0109L15.7331 23.6617C15.7752 23.8097 15.9222 23.9154 16.0692 23.8943H20.4588C20.6688 23.8943 20.7318 23.7886 20.6688 23.556L13.0028 1.77621C12.9818 1.67049 12.8978 1.60705 12.7297 1.60705H7.29001C7.18499 1.6282 7.10098 1.73392 7.12198 1.83965C7.12198 2.30485 7.07998 2.77005 6.99597 3.2141C6.93644 3.39388 6.88746 3.56304 6.84156 3.72159C6.82267 3.78682 6.8043 3.85026 6.78594 3.9119L0.0230251 23.5137C-0.0399834 23.7674 0.0230247 23.8943 0.254056 23.8943H4.20259C4.39162 23.9154 4.55964 23.7886 4.60164 23.5982L6.19786 18.6291ZM12.7507 14.3366H7.41602C7.73106 13.4485 8.04611 12.4546 8.34015 11.3762C8.54819 10.7217 8.74819 10.0671 8.94512 9.42258C9.06628 9.02604 9.18628 8.6333 9.30628 8.2467C9.60032 7.33745 9.83135 6.4282 10.0204 5.51894H10.0624C10.1443 5.80184 10.2263 6.09789 10.3119 6.40707C10.3798 6.65253 10.4501 6.90626 10.5244 7.16828C10.6925 7.7815 10.8815 8.39472 11.0915 9.05022C11.1965 9.37797 11.2963 9.70044 11.3961 10.0229C11.4958 10.3454 11.5956 10.6678 11.7006 10.9956C11.8896 11.63 12.0787 12.2432 12.2677 12.8141C12.4567 13.3639 12.6247 13.8925 12.7507 14.3366Z" fill="url(#paint2_linear_2_350)"/>
<defs>
<linearGradient id="paint0_linear_2_350" x1="1.52588e-05" y1="0" x2="23.7177" y2="27.6706" gradientUnits="userSpaceOnUse">
<stop stop-color="#EC8282"/>
<stop offset="1" stop-color="#82B3EC"/>
</linearGradient>
<linearGradient id="paint1_linear_2_350" x1="1.52588e-05" y1="0" x2="23.7177" y2="27.6706" gradientUnits="userSpaceOnUse">
<stop stop-color="#EC8282"/>
<stop offset="1" stop-color="#82B3EC"/>
</linearGradient>
<linearGradient id="paint2_linear_2_350" x1="1.52588e-05" y1="0" x2="23.7177" y2="27.6706" gradientUnits="userSpaceOnUse">
<stop stop-color="#EC8282"/>
<stop offset="1" stop-color="#82B3EC"/>
</linearGradient>
</defs>
</svg>
