<svg width="50" height="50" viewBox="0 0 50 50" fill="none" xmlns="http://www.w3.org/2000/svg">
<rect y="3.05176e-05" width="50" height="50" rx="25" fill="url(#paint0_linear_6_142)"/>
<path d="M35.4129 14.9263C33.4709 14.0264 31.3945 13.3724 29.2236 13C28.957 13.4774 28.6455 14.1195 28.4308 14.6303C26.1231 14.2866 23.8367 14.2866 21.5714 14.6303C21.3567 14.1195 21.0382 13.4774 20.7692 13C18.596 13.3724 16.5172 14.0288 14.5752 14.931C10.6583 20.7932 9.59649 26.5098 10.1274 32.1452C12.7253 34.0667 15.243 35.2339 17.7182 35.9977C18.3294 35.1646 18.8744 34.2791 19.344 33.3458C18.4497 33.0093 17.5932 32.594 16.7838 32.1118C16.9986 31.9543 17.2086 31.7896 17.4115 31.6201C22.3477 33.9068 27.7111 33.9068 32.5884 31.6201C32.7937 31.7896 33.0037 31.9543 33.2161 32.1118C32.4043 32.5963 31.5455 33.0117 30.6512 33.3482C31.1207 34.2791 31.6635 35.167 32.2769 36C34.7545 35.2362 37.2746 34.0691 39.8725 32.1452C40.4954 25.6123 38.8083 19.9483 35.4129 14.9263ZM20.0165 28.6795C18.5347 28.6795 17.3194 27.3094 17.3194 25.641C17.3194 23.9725 18.5087 22.6001 20.0165 22.6001C21.5243 22.6001 22.7394 23.9701 22.7135 25.641C22.7158 27.3094 21.5243 28.6795 20.0165 28.6795ZM29.9834 28.6795C28.5016 28.6795 27.2864 27.3094 27.2864 25.641C27.2864 23.9725 28.4756 22.6001 29.9834 22.6001C31.4912 22.6001 32.7064 23.9701 32.6805 25.641C32.6805 27.3094 31.4912 28.6795 29.9834 28.6795Z" fill="white"/>
<defs>
<linearGradient id="paint0_linear_6_142" x1="0" y1="3.05176e-05" x2="50" y2="50" gradientUnits="userSpaceOnUse">
<stop stop-color="#EC8282"/>
<stop offset="1" stop-color="#82B3EC"/>
</linearGradient>
</defs>
</svg>
