<svg width="50" height="50" viewBox="0 0 50 50" fill="none" xmlns="http://www.w3.org/2000/svg">
<rect width="50" height="50" rx="25" fill="url(#paint0_linear_6_137)"/>
<path d="M25.0017 10C16.7132 9.99667 10 16.6593 10 24.8827C10 31.3856 14.1995 36.9134 20.048 38.9434C20.8357 39.1398 20.715 38.584 20.715 38.2046V35.6254C16.1669 36.1546 15.9826 33.1661 15.6776 32.6669C15.0609 31.6219 13.6029 31.3556 14.0387 30.8564C15.0743 30.3273 16.13 30.9896 17.3534 32.7833C18.2382 34.0846 19.9643 33.8649 20.839 33.6486C21.0301 32.8665 21.4389 32.1677 22.002 31.6252C17.2897 30.7866 15.3257 27.9311 15.3257 24.5366C15.3257 22.8893 15.872 21.375 16.9445 20.1537C16.2608 18.1402 17.0082 16.4163 17.1087 16.1601C19.056 15.987 21.0803 17.5445 21.2379 17.6677C22.3439 17.3715 23.6074 17.2151 25.0218 17.2151C26.4429 17.2151 27.7098 17.3781 28.8258 17.6776C29.2046 17.3914 31.0814 16.0536 32.8913 16.2167C32.9885 16.4729 33.7191 18.1569 33.0756 20.1437C34.1615 21.3684 34.7146 22.8959 34.7146 24.5466C34.7146 27.9478 32.7371 30.8065 28.0114 31.6319C28.4162 32.0271 28.7376 32.4985 28.9568 33.0185C29.1761 33.5385 29.2888 34.0966 29.2883 34.6603V38.4043C29.3152 38.7038 29.2883 39 29.7911 39C35.7267 37.0132 40 31.4455 40 24.886C40 16.6593 33.2834 10 25.0017 10V10Z" fill="white"/>
<defs>
<linearGradient id="paint0_linear_6_137" x1="0" y1="0" x2="50" y2="50" gradientUnits="userSpaceOnUse">
<stop stop-color="#EC8282"/>
<stop offset="1" stop-color="#82B3EC"/>
</linearGradient>
</defs>
</svg>
