<svg width="230" height="230" viewBox="0 0 230 230" fill="none" xmlns="http://www.w3.org/2000/svg">
<path fill-rule="evenodd" clip-rule="evenodd" d="M210 230H180V220H210C212.651 219.997 215.193 218.942 217.067 217.067C218.942 215.193 219.997 212.651 220 210V180H230V210C230 215.304 227.893 220.391 224.142 224.142C220.391 227.893 215.304 230 210 230ZM220 20C219.997 17.3489 218.942 14.8074 217.067 12.9327C215.193 11.0581 212.651 10.0034 210 10H180V0H210C215.304 0 220.391 2.10714 224.142 5.85786C227.893 9.60859 230 14.6957 230 20V50H220V20ZM200 80H170C164.696 80 159.609 77.8929 155.858 74.1421C152.107 70.3914 150 65.3043 150 60V30H160V60C160.003 62.6511 161.058 65.1927 162.933 67.0673C164.807 68.9419 167.349 69.9966 170 70H200V80ZM90 200V150H140V160H100V170H140V180H100V190H140V200H90ZM130 120H100V140H90V90H100V110H130V90H140V140H130V120ZM120 80H110C104.696 80 99.6086 77.8929 95.8579 74.1421C92.1071 70.3914 90 65.3043 90 60V30H100V60C100.003 62.6511 101.058 65.1927 102.933 67.0673C104.807 68.9419 107.349 69.9966 110 70H120C122.651 69.9966 125.193 68.9419 127.067 67.0673C128.942 65.1927 129.997 62.6511 130 60V30H140V60C140 65.3043 137.893 70.3914 134.142 74.1421C130.391 77.8929 125.304 80 120 80ZM60 200H30V150H60C65.3043 150 70.3914 152.107 74.1421 155.858C77.8929 159.609 80 164.696 80 170V180C80 185.304 77.8929 190.391 74.1421 194.142C70.3914 197.893 65.3043 200 60 200ZM70 170C69.9966 167.349 68.9419 164.807 67.0673 162.933C65.1927 161.058 62.6511 160.003 60 160H40V190H60C62.6513 189.997 65.1931 188.943 67.0679 187.068C68.9426 185.193 69.9971 182.651 70 180V170ZM30 120V110C30 104.696 32.1071 99.6086 35.8579 95.8579C39.6086 92.1071 44.6957 90 50 90H80V100H50C47.3487 100.003 44.8069 101.057 42.9321 102.932C41.0574 104.807 40.0029 107.349 40 110V120C40.0029 122.651 41.0574 125.193 42.9321 127.068C44.8069 128.943 47.3487 129.997 50 130H80V140H50C44.6957 140 39.6086 137.893 35.8579 134.142C32.1071 130.391 30 125.304 30 120ZM60 80H30V70H60C62.6511 69.9966 65.1927 68.9419 67.0673 67.0673C68.9419 65.1927 69.9966 62.6511 70 60V30H80V60C80 65.3043 77.8929 70.3914 74.1421 74.1421C70.3914 77.8929 65.3043 80 60 80ZM10 20V50H0V20C0 14.6957 2.10714 9.60859 5.85786 5.85786C9.60859 2.10714 14.6957 0 20 0H50V10H20C17.3488 10.0032 14.8071 11.0578 12.9324 12.9324C11.0578 14.8071 10.0032 17.3488 10 20V20ZM10 210C10.0032 212.651 11.0578 215.193 12.9324 217.068C14.8071 218.942 17.3488 219.997 20 220H50V230H20C14.6957 230 9.60859 227.893 5.85786 224.142C2.10714 220.391 0 215.304 0 210V180H10V210ZM181 90V140H171V90H181ZM170 150H200V160H170C167.349 160.003 164.807 161.058 162.933 162.933C161.058 164.807 160.003 167.349 160 170H200V180C200 185.304 197.893 190.391 194.142 194.142C190.391 197.893 185.304 200 180 200H150V190H180C182.651 189.997 185.193 188.943 187.068 187.068C188.943 185.193 189.997 182.651 190 180H150V170C150 164.696 152.107 159.609 155.858 155.858C159.609 152.107 164.696 150 170 150Z" fill="white"/>
</svg>
