<svg width="30" height="24" viewBox="0 0 30 24" fill="none" xmlns="http://www.w3.org/2000/svg">
<path d="M29.5901 16.0593C29.7487 16.2682 29.865 16.5065 29.9324 16.7608C29.9998 17.015 30.0171 17.2802 29.9831 17.5412C29.9491 17.8021 29.8645 18.0538 29.7342 18.2817C29.6039 18.5096 29.4305 18.7094 29.2238 18.8696C29.017 19.0298 28.7811 19.1473 28.5294 19.2153L23.1092 20.6826C22.6383 20.8105 22.1372 20.7583 21.702 20.5361C21.2668 20.314 20.928 19.9374 20.7505 19.4785L18.429 13.4955C18.3335 13.2505 18.2868 12.989 18.2914 12.7258C18.296 12.4626 18.352 12.203 18.456 11.9616C18.5601 11.7203 18.7102 11.5021 18.8978 11.3194C19.0854 11.1367 19.3068 10.9932 19.5493 10.8971C19.7918 10.8009 20.0508 10.754 20.3113 10.759C20.5718 10.764 20.8287 10.8208 21.0675 10.9262C21.3062 11.0316 21.522 11.1835 21.7026 11.3733C21.8832 11.563 22.025 11.7869 22.1199 12.032L22.7336 13.6105C23.0739 11.9655 22.8931 10.254 22.2167 8.71868C21.5403 7.18334 20.4027 5.90209 18.9651 5.05657C17.4725 4.1918 15.7393 3.84814 14.0339 4.07877C13.512 4.14481 12.9855 3.99868 12.5702 3.67253C12.155 3.34638 11.885 2.86694 11.8196 2.33966C11.7542 1.81238 11.8989 1.28046 12.2217 0.860927C12.5445 0.441389 13.0191 0.168597 13.541 0.10256C16.1045 -0.240011 18.7083 0.280985 20.9491 1.58485C23.299 2.96103 25.1131 5.1071 26.0906 7.66744C27.0681 10.2278 27.1504 13.0487 26.3239 15.6628L27.5028 15.3436C27.7544 15.2754 28.0169 15.258 28.2752 15.2923C28.5335 15.3267 28.7826 15.4121 29.0082 15.5437C29.2338 15.6753 29.4315 15.8505 29.5901 16.0593Z" fill="url(#paint0_linear_2_402)"/>
<path d="M11.0293 18.9434C12.522 19.8082 14.2551 20.1519 15.9606 19.9212C16.4825 19.8552 17.009 20.0013 17.4242 20.3275C17.6298 20.489 17.8019 20.6898 17.9307 20.9185C18.0595 21.1472 18.1425 21.3993 18.1748 21.6603C18.2402 22.1876 18.0956 22.7195 17.7728 23.1391C17.4499 23.5586 16.9754 23.8314 16.4535 23.8974C13.89 24.24 11.2862 23.719 9.04539 22.4151C6.69548 21.0389 4.8815 18.8929 3.90403 16.3326C2.92655 13.7723 2.84425 10.9514 3.67076 8.33734L2.49186 8.65648C1.98422 8.79238 1.44394 8.71936 0.989503 8.45343C0.535062 8.18751 0.203538 7.75037 0.0676145 7.23787C-0.068308 6.72537 0.00246347 6.17933 0.264413 5.71946C0.526363 5.2596 0.958113 4.92344 1.465 4.78469L6.88524 3.31737C7.35614 3.19083 7.85667 3.24358 8.29158 3.46559C8.7265 3.68761 9.06546 4.0634 9.24399 4.52147L11.5655 10.5045C11.6609 10.7495 11.7077 11.011 11.703 11.2742C11.6984 11.5374 11.6424 11.797 11.5384 12.0384C11.4343 12.2797 11.2842 12.4979 11.0966 12.6806C10.9091 12.8633 10.6877 13.0068 10.4451 13.1029C10.2026 13.1991 9.94368 13.246 9.68319 13.241C9.42269 13.236 9.16573 13.1792 8.92699 13.0738C8.68825 12.9684 8.47242 12.8165 8.29183 12.6267C8.11125 12.437 7.96945 12.2131 7.87456 11.968L7.26083 10.3895C6.9205 12.0345 7.10136 13.746 7.77776 15.2813C8.45417 16.8167 9.59179 18.0979 11.0293 18.9434Z" fill="url(#paint1_linear_2_402)"/>
<defs>
<linearGradient id="paint0_linear_2_402" x1="1.52588e-05" y1="0" x2="23.4146" y2="29.2683" gradientUnits="userSpaceOnUse">
<stop stop-color="#EC8282"/>
<stop offset="1" stop-color="#82B3EC"/>
</linearGradient>
<linearGradient id="paint1_linear_2_402" x1="1.52588e-05" y1="0" x2="23.4146" y2="29.2683" gradientUnits="userSpaceOnUse">
<stop stop-color="#EC8282"/>
<stop offset="1" stop-color="#82B3EC"/>
</linearGradient>
</defs>
</svg>
