<svg width="30" height="30" viewBox="0 0 30 30" fill="none" xmlns="http://www.w3.org/2000/svg">
<path fill-rule="evenodd" clip-rule="evenodd" d="M7.50614 2.01179C0.328307 6.15323 -2.13101 15.3256 2.01312 22.4987C5.20913 28.0308 11.3993 30.7583 17.3569 29.817L14.2138 26.6759C13.3932 25.8559 13.3933 24.5265 14.2138 23.7065C15.0342 22.8866 16.3645 22.8866 17.185 23.7065L17.7306 24.2517L13.1917 16.3953C12.6116 15.3911 12.9559 14.1069 13.9608 13.5271C14.9657 12.9473 16.2506 13.2914 16.8308 14.2957L19.352 18.6597C18.7718 17.6554 19.1161 16.3713 20.121 15.7915C21.1259 15.2117 22.4109 15.5558 22.9911 16.5601L23.8315 18.0147C23.2513 17.0105 23.5956 15.7264 24.6005 15.1466C25.6054 14.5667 26.8903 14.9108 27.4705 15.9151L28.3109 17.3698C27.7307 16.3655 28.075 15.0814 29.0799 14.5016C29.3711 14.3336 29.6858 14.2432 30 14.2239C29.8829 11.9294 29.2347 9.6275 28.0064 7.50125C23.8622 0.328056 14.684 -2.12965 7.50614 2.01179ZM6.43197 19.9492C3.69686 15.2149 5.31999 9.16113 10.0574 6.42778C14.7947 3.69443 20.8524 5.31653 23.5875 10.0508C23.8362 10.4812 24.3869 10.6287 24.8175 10.3802C25.2482 10.1317 25.3958 9.58137 25.1471 9.15098C21.9147 3.5559 14.7556 1.63887 9.15693 4.8692C3.55822 8.09952 1.63997 15.2539 4.87238 20.849C5.12103 21.2794 5.67172 21.4269 6.10239 21.1784C6.53306 20.9299 6.68062 20.3796 6.43197 19.9492ZM12.4585 10.584C10.018 11.9921 9.18189 15.1107 10.5909 17.5496C10.8395 17.98 10.692 18.5303 10.2613 18.7788C9.83064 19.0273 9.27994 18.8798 9.0313 18.4494C7.125 15.1498 8.25628 10.9305 11.5581 9.02542C14.8599 7.12036 19.0819 8.25092 20.9882 11.5506C21.2368 11.981 21.0893 12.5313 20.6586 12.7798C20.2279 13.0283 19.6772 12.8808 19.4286 12.4504C18.0196 10.0116 14.899 9.17592 12.4585 10.584Z" fill="url(#paint0_linear_2_395)"/>
<defs>
<linearGradient id="paint0_linear_2_395" x1="3.05176e-05" y1="0" x2="30" y2="30" gradientUnits="userSpaceOnUse">
<stop stop-color="#EC8282"/>
<stop offset="1" stop-color="#82B3EC"/>
</linearGradient>
</defs>
</svg>
