<svg width="30" height="30" viewBox="0 0 30 30" fill="none" xmlns="http://www.w3.org/2000/svg">
<path fill-rule="evenodd" clip-rule="evenodd" d="M27.004 23.9969C30.4928 19.3375 31.0828 12.8613 27.9882 7.50125C23.8468 0.32806 14.6745 -2.12966 7.50127 2.01179C0.328076 6.15323 -2.12964 15.3256 2.0118 22.4987C5.14259 27.9214 11.1485 30.6493 16.9923 29.8686C15.5037 28.6152 13.5073 27.2158 10.9263 25.9412C12.4299 20.1611 12.7945 15.6928 12.8233 12.8746L17.104 20.289C15.7769 21.4853 15.4133 23.484 16.337 25.0847C17.3997 26.9253 19.7693 27.5542 21.6193 26.4861C23.4691 25.4181 24.109 23.0521 23.0461 21.2111C22.1217 19.6099 20.2084 18.9255 18.5086 19.4776L14.1514 11.9308C16.7345 13.368 21.0142 15.4338 26.5227 16.9609C26.4576 19.8689 26.6827 22.197 27.004 23.9969ZM20.8123 25.0883C21.8873 24.4677 22.2593 23.0924 21.6416 22.0225C21.0239 20.9526 19.6469 20.5871 18.5719 21.2078C17.4966 21.8286 17.1242 23.204 17.7419 24.274C18.36 25.3437 19.7373 25.7089 20.8123 25.0883ZM5.74968 18.5267C4.04147 14.0626 5.77952 8.89383 10.0508 6.42778C14.3222 3.96173 19.6675 5.04092 22.6794 8.75233C22.1673 9.49162 22.0938 10.4897 22.5734 11.3202C23.236 12.468 24.7036 12.8612 25.8513 12.1985C26.999 11.5359 27.3922 10.0684 26.7296 8.92063C26.2038 8.0099 25.1711 7.57424 24.1937 7.76424C20.6571 3.25914 14.2552 1.92228 9.15099 4.86919C4.04679 7.8161 2.00358 14.0288 4.13684 19.3441C3.48356 20.0956 3.34453 21.2077 3.87034 22.1184C4.53298 23.2662 6.00054 23.6594 7.14825 22.9967C8.29596 22.3341 8.68921 20.8666 8.02657 19.7188C7.54704 18.8883 6.646 18.4528 5.74968 18.5267Z" fill="url(#paint0_linear_2_126)"/>
<defs>
<linearGradient id="paint0_linear_2_126" x1="1.52588e-05" y1="0" x2="30" y2="30" gradientUnits="userSpaceOnUse">
<stop stop-color="#EC8282"/>
<stop offset="1" stop-color="#82B3EC"/>
</linearGradient>
</defs>
</svg>
