<svg width="30" height="30" viewBox="0 0 30 30" fill="none" xmlns="http://www.w3.org/2000/svg">
<path d="M29.4348 13.6637L16.3363 0.565888C15.5821 -0.188629 14.3588 -0.188629 13.6039 0.565888L10.8843 3.2862L14.3343 6.73622C15.1362 6.46523 16.0556 6.64709 16.6945 7.28635C17.3374 7.92954 17.5176 8.85677 17.2397 9.66157L20.5654 12.9869C21.3702 12.7093 22.298 12.8889 22.9406 13.5324C23.8384 14.4303 23.8384 15.8851 22.9406 16.7836C22.0421 17.6818 20.5872 17.6818 19.6884 16.7836C19.0132 16.1078 18.8461 15.1153 19.1886 14.2834L16.0869 11.182V19.3433C16.3056 19.4517 16.5123 19.596 16.6945 19.7782C17.5923 20.676 17.5923 22.1309 16.6945 23.0297C15.7967 23.9272 14.3408 23.9272 13.4436 23.0297C12.5458 22.1305 12.5458 20.6757 13.4436 19.7782C13.6657 19.5565 13.9226 19.3887 14.1969 19.2764V11.039C13.9226 10.9267 13.6663 10.7605 13.4436 10.5372C12.7636 9.85746 12.6 8.85905 12.9487 8.02389L9.54764 4.6222L0.565904 13.603C-0.188614 14.3581 -0.188614 15.5815 0.565904 16.336L13.665 29.4341C14.4192 30.1886 15.6422 30.1886 16.3974 29.4341L29.4348 16.3967C30.1893 15.6422 30.1893 14.4182 29.4348 13.6637Z" fill="url(#paint0_linear_2_342)"/>
<defs>
<linearGradient id="paint0_linear_2_342" x1="1.52588e-05" y1="0" x2="30" y2="30.0007" gradientUnits="userSpaceOnUse">
<stop stop-color="#EC8282"/>
<stop offset="1" stop-color="#82B3EC"/>
</linearGradient>
</defs>
</svg>
