<svg width="30" height="27" viewBox="0 0 30 27" fill="none" xmlns="http://www.w3.org/2000/svg">
<path fill-rule="evenodd" clip-rule="evenodd" d="M29.9829 15.5763C29.9943 15.3393 30 15.1008 30 14.8609C30 6.65344 23.2843 -6.10352e-05 15 -6.10352e-05C6.71574 -6.10352e-05 1.52588e-05 6.65344 1.52588e-05 14.8609C1.52588e-05 19.8746 2.50605 24.3085 6.34482 26.9999L10.6953 22.6649C11.3022 22.0601 12.2126 22.0601 12.8195 22.6649L13.7299 23.5721C14.3369 24.1769 15.2473 24.1769 15.8542 23.5721L25.8686 13.5932C26.4755 12.9885 27.3859 12.9885 27.9928 13.5932L29.9829 15.5763ZM14.7574 11.9404C14.7574 10.2773 13.3918 8.91654 11.7228 8.91654C10.0537 8.91654 8.6881 10.2773 8.6881 11.9404C8.6881 13.6036 10.0537 14.9643 11.7228 14.9643C13.3918 14.9643 14.7574 13.6036 14.7574 11.9404Z" fill="url(#paint0_linear_2_142)"/>
<defs>
<linearGradient id="paint0_linear_2_142" x1="1.52588e-05" y1="-6.10352e-05" x2="26.8508" y2="29.8342" gradientUnits="userSpaceOnUse">
<stop stop-color="#EC8282"/>
<stop offset="1" stop-color="#82B3EC"/>
</linearGradient>
</defs>
</svg>
