<svg width="27" height="30" viewBox="0 0 27 30" fill="none" xmlns="http://www.w3.org/2000/svg">
<path fill-rule="evenodd" clip-rule="evenodd" d="M24.3112 23.3586V22.2801C24.0346 22.6718 23.6564 22.9807 23.2174 23.1737C22.7442 23.4128 22.2222 23.5393 21.6921 23.5432C20.6236 23.5432 19.7917 23.2093 19.1962 22.5416C18.6008 21.8739 18.3029 20.8314 18.3027 19.4142V10.0154C18.3027 8.59772 18.6005 7.55513 19.1962 6.88766C19.7919 6.22019 20.6239 5.88595 21.6921 5.88494C22.2013 5.88406 22.7032 6.00557 23.1557 6.23924C23.5691 6.42919 23.9097 6.74822 24.1263 7.14835V0H26.9609V23.3586H24.3112ZM24.1263 10.6006C24.1263 9.84114 24.0031 9.29684 23.7566 8.96772C23.6259 8.80132 23.4565 8.66937 23.2632 8.58333C23.0699 8.49729 22.8585 8.45978 22.6474 8.47405C21.6614 8.47405 21.1684 9.1931 21.1683 10.6312V18.7975C21.1683 19.5577 21.2915 20.1073 21.5379 20.4461C21.6754 20.6057 21.8457 20.7337 22.0371 20.8215C22.2286 20.9092 22.4367 20.9546 22.6473 20.9546C22.8579 20.9546 23.066 20.9092 23.2574 20.8215C23.4489 20.7337 23.6191 20.6057 23.7566 20.4461C24.0031 20.1073 24.1263 19.5577 24.1263 18.7975V10.6006V10.6006ZM12.7103 22.5266C12.0633 21.8694 11.7397 20.7292 11.7397 19.106V8.62842H10.6005V6.22481C11.36 6.22481 11.8789 6.03494 12.1574 5.65519C12.4359 5.27544 12.5746 4.55127 12.5734 3.48266H14.5745V6.07063H16.7315V8.62842H14.5745V18.9828C14.5519 19.4322 14.6146 19.8819 14.7595 20.3079C14.8206 20.4501 14.9159 20.5751 15.0368 20.6719C15.1577 20.7686 15.3005 20.8341 15.4527 20.8625C15.8739 20.9476 16.3067 20.958 16.7315 20.8933V23.4511L15.499 23.5128C14.2866 23.5128 13.357 23.1841 12.7103 22.5266V22.5266ZM26.9609 28.6697H10.252V25.8216H26.9609V28.6697ZM7.56458 28.4742C6.83521 29.1109 5.77217 29.4292 4.37547 29.4292C2.97876 29.4292 1.92597 29.1109 1.21711 28.4742C0.508251 27.8372 0.15382 26.8922 0.15382 25.639H2.9273V25.8547C2.91792 26.0347 2.94748 26.2146 3.01396 26.3821C3.08045 26.5497 3.1823 26.7009 3.31255 26.8255C3.6085 27.0755 3.98911 27.2023 4.37585 27.1798C5.34116 27.1798 5.82388 26.6662 5.82401 25.639V22.2492C5.58138 22.6567 5.22904 22.9878 4.80724 23.2046C4.3695 23.4319 3.88264 23.5481 3.38945 23.5432C2.3211 23.5432 1.48914 23.2093 0.893567 22.5416C0.297998 21.8739 0.00014947 20.8211 2.28882e-05 19.3834V10.046C2.28882e-05 8.64918 0.292744 7.61684 0.878187 6.94899C1.46363 6.28114 2.2699 5.94728 3.29698 5.9474C3.67286 5.95161 4.04626 6.00869 4.40623 6.11696C4.77228 6.21851 5.11681 6.38579 5.423 6.61063C5.64941 6.76546 5.84743 6.95815 6.00838 7.18025V6.07063H8.65844V25.0227C8.65844 26.6867 8.29382 27.8372 7.56458 28.4742ZM5.82363 10.9705C5.82363 10.0465 5.71066 9.3993 5.48471 9.02905C5.25876 8.6588 4.87901 8.47392 4.34547 8.47443C4.15052 8.46737 3.95612 8.49915 3.77357 8.56793C3.59103 8.63671 3.42399 8.74112 3.28217 8.87506C3.00471 9.14228 2.86597 9.54285 2.86597 10.0768V18.3976C2.86597 19.3018 2.97895 19.9489 3.2049 20.3391C3.43085 20.7292 3.81059 20.9244 4.34414 20.9246C4.89882 20.9246 5.28401 20.7397 5.49971 20.3698C5.7154 19.9999 5.823 19.3631 5.82249 18.4593V10.9705H5.82363Z" fill="url(#paint0_linear_2_375)"/>
<defs>
<linearGradient id="paint0_linear_2_375" x1="2.28882e-05" y1="0" x2="29.3167" y2="26.8578" gradientUnits="userSpaceOnUse">
<stop stop-color="#EC8282"/>
<stop offset="1" stop-color="#82B3EC"/>
</linearGradient>
</defs>
</svg>
