<svg width="25" height="20" viewBox="0 0 25 20" fill="none" xmlns="http://www.w3.org/2000/svg">
<path fill-rule="evenodd" clip-rule="evenodd" d="M19.15 19.7792C19.4854 20.0072 19.9177 20.0642 20.3031 19.9242C20.6885 19.7832 20.9718 19.4672 21.0572 19.0842C21.9624 15.0002 24.1582 4.66315 24.9821 0.948149C25.0446 0.668149 24.9405 0.377149 24.7113 0.190149C24.4822 0.00314829 24.1645 -0.0508519 23.8811 0.0501482C19.5135 1.60215 6.06278 6.44716 0.564985 8.40016C0.216035 8.52416 -0.0110437 8.84616 0.000414422 9.19916C0.0129141 9.55316 0.260825 9.86016 0.618109 9.96316C3.08368 10.6712 6.32006 11.6562 6.32006 11.6562C6.32006 11.6562 7.83253 16.0412 8.62105 18.2712C8.72001 18.5512 8.94813 18.7712 9.24916 18.8472C9.54916 18.9222 9.86998 18.8432 10.0939 18.6402C11.3606 17.4922 13.3189 15.7172 13.3189 15.7172C13.3189 15.7172 17.0396 18.3362 19.15 19.7792V19.7792ZM7.68149 11.1022L9.43041 16.6402L9.81894 13.1332C9.81894 13.1332 16.5761 7.28216 20.4281 3.94715C20.5406 3.84915 20.5562 3.68515 20.4624 3.57015C20.3697 3.45515 20.1989 3.42815 20.0708 3.50615C15.6063 6.24316 7.68149 11.1022 7.68149 11.1022Z" fill="url(#paint0_linear_21_706)"/>
<defs>
<linearGradient id="paint0_linear_21_706" x1="0" y1="0" x2="19.5122" y2="24.3902" gradientUnits="userSpaceOnUse">
<stop stop-color="#EC8282"/>
<stop offset="1" stop-color="#82B3EC"/>
</linearGradient>
</defs>
</svg>
