<svg width="26" height="20" viewBox="0 0 26 20" fill="none" xmlns="http://www.w3.org/2000/svg">
<path d="M22.0245 1.675C20.3414 0.8925 18.5419 0.323815 16.6605 0C16.4294 0.415119 16.1595 0.973462 15.9734 1.41762C13.9734 1.11874 11.9918 1.11874 10.0286 1.41762C9.84251 0.973462 9.56643 0.415119 9.33331 0C7.44987 0.323815 5.64824 0.894589 3.96521 1.67914C0.57053 6.77669 -0.349712 11.7476 0.11041 16.648C2.36194 18.3188 4.54394 19.3338 6.68912 19.9979C7.21878 19.2736 7.69116 18.5035 8.09811 17.692C7.32306 17.3994 6.58074 17.0382 5.87933 16.6189C6.06541 16.482 6.24743 16.3387 6.42328 16.1914C10.7014 18.1798 15.3496 18.1798 19.5766 16.1914C19.7545 16.3387 19.9365 16.482 20.1206 16.6189C19.4171 17.0403 18.6727 17.4014 17.8977 17.6941C18.3046 18.5035 18.775 19.2757 19.3067 20C21.4539 19.3358 23.638 18.3209 25.8895 16.648C26.4294 10.9672 24.9672 6.04194 22.0245 1.675ZM8.68094 13.6343C7.3967 13.6343 6.34351 12.4429 6.34351 10.9921C6.34351 9.54132 7.37421 8.34788 8.68094 8.34788C9.98771 8.34788 11.0409 9.53923 11.0184 10.9921C11.0204 12.4429 9.98771 13.6343 8.68094 13.6343ZM17.319 13.6343C16.0347 13.6343 14.9815 12.4429 14.9815 10.9921C14.9815 9.54132 16.0122 8.34788 17.319 8.34788C18.6257 8.34788 19.6789 9.53923 19.6564 10.9921C19.6564 12.4429 18.6257 13.6343 17.319 13.6343Z" fill="url(#paint0_linear_21_708)"/>
<defs>
<linearGradient id="paint0_linear_21_708" x1="0" y1="0" x2="19.3309" y2="25.1301" gradientUnits="userSpaceOnUse">
<stop stop-color="#EC8282"/>
<stop offset="1" stop-color="#82B3EC"/>
</linearGradient>
</defs>
</svg>
