<svg width="85" height="40" viewBox="0 0 85 40" fill="none" xmlns="http://www.w3.org/2000/svg">
<path d="M64.9493 19.5282L66.3486 18.4199C66.5023 18.6046 66.7022 18.7432 66.9175 18.8201C67.225 18.9125 67.5479 18.8509 67.8093 18.6508C67.9938 18.5277 68.1476 18.3583 68.2091 18.1428C68.3014 17.8658 68.1476 17.5579 67.8708 17.4656C67.8247 17.4502 67.7786 17.4348 67.7325 17.4348C67.5479 17.4194 67.225 17.4964 66.7484 17.6965C65.9642 18.0197 65.3491 18.1428 64.8878 18.0967C64.4419 18.0505 64.0268 17.8196 63.7807 17.4348C63.5962 17.1731 63.504 16.8653 63.4886 16.5574C63.4886 16.2034 63.5809 15.8494 63.7807 15.5569C64.0729 15.1413 64.4265 14.7873 64.8571 14.5103C65.5029 14.0639 66.0718 13.8484 66.5639 13.8484C67.0559 13.8484 67.5172 14.0793 67.9477 14.5564L66.5639 15.6493C66.2871 15.2953 65.7643 15.2183 65.4106 15.4954L65.3645 15.5415C65.2107 15.6339 65.1031 15.7724 65.0416 15.9417C64.9955 16.0649 65.0262 16.2034 65.1031 16.3112C65.1646 16.3881 65.2569 16.4497 65.3645 16.4497C65.4875 16.4651 65.7028 16.4035 66.0103 16.265C66.7791 15.9417 67.3634 15.757 67.7632 15.6955C68.1015 15.6339 68.4551 15.6647 68.778 15.8032C69.0702 15.9263 69.3162 16.1418 69.4853 16.4035C69.7006 16.7114 69.8236 17.0808 69.839 17.4656C69.8544 17.8658 69.7467 18.2506 69.5315 18.5892C69.2547 19.0048 68.901 19.3588 68.4859 19.6359C67.6402 20.2208 66.9483 20.4671 66.3947 20.3747C65.795 20.2824 65.303 19.9745 64.9493 19.5282Z" fill="#A2B4C7"/>
<path d="M60.3365 17.8196L61.8741 16.7421L63.7654 19.4358C64.0883 19.8668 64.3343 20.3286 64.5188 20.8365C64.6264 21.2213 64.5957 21.6369 64.4419 22.0063C64.242 22.4681 63.9191 22.8529 63.4886 23.13C62.9812 23.484 62.5506 23.6841 62.1816 23.7457C61.828 23.8072 61.4589 23.7457 61.1207 23.5917C60.7516 23.407 60.4287 23.1454 60.1827 22.8067L61.5051 21.5753C61.6127 21.7447 61.7511 21.8986 61.9048 22.0217C62.0125 22.0987 62.1355 22.1449 62.2739 22.1449C62.3815 22.1449 62.4891 22.0987 62.566 22.0371C62.7198 21.9448 62.8274 21.7601 62.812 21.5753C62.7659 21.3137 62.6583 21.052 62.4891 20.8519L60.3365 17.8196Z" fill="#A2B4C7"/>
<path fill-rule="evenodd" clip-rule="evenodd" d="M58.2912 13.4417L51.7426 18.3816L61.7088 31.621L77.6606 19.5879L73.1613 13.6109C73.0077 13.3354 72.8339 13.0679 72.6397 12.8099C72.4456 12.5519 72.2366 12.3111 72.0144 12.0874L67.6944 6.34849L61.2375 11.2192C60.7033 11.5059 60.1816 11.8387 59.6792 12.2177C59.177 12.5966 58.7137 13.0068 58.2912 13.4417ZM71.9843 23.0989C73.7014 20.8115 74.417 18.0698 73.9093 15.6277L76.7992 19.4667L71.9843 23.0989ZM66.7363 27.0576C63.9664 28.1178 61.024 28.0058 58.7861 26.7153L61.8299 30.7588L66.7363 27.0576ZM55.4686 22.3083C54.9127 20.0668 55.4147 17.5436 56.7981 15.3389L52.604 18.5028L55.4686 22.3083ZM58.6923 13.91C55.6311 17.0856 54.951 21.5381 57.1671 24.482C59.68 27.8201 65.0821 28.1094 69.2662 24.953C73.1448 22.0271 74.4687 17.2782 72.6398 13.9412L71.5535 12.4981C69.1974 10.1599 65.1474 9.83533 61.5767 11.7343L58.6923 13.91ZM63.4709 10.3054C65.868 9.61118 68.3231 9.77862 70.284 10.8117L67.5733 7.21074L63.4709 10.3054Z" fill="#A2B4C7"/>
<path fill-rule="evenodd" clip-rule="evenodd" d="M46.2407 16.5389L45.5943 17.0264L46.8245 18.6606L43.8839 18.8509C43.9915 20.2362 44.5297 21.3752 45.4369 22.2834C46.3441 23.1915 47.9586 23.6379 50.2958 23.6379C50.388 23.6379 50.4791 23.637 50.5692 23.635L52.833 26.6422C51.7492 26.0452 50.4149 25.7467 48.8196 25.7467C46.5901 25.7467 44.8372 26.3778 43.5917 27.6246C43.0401 28.1768 42.6091 28.8286 42.3001 29.5788V25.993H38.0255V30.8108H33.3819V25.993H29.138V39.7537H33.3819V34.1817H38.0255V39.7537H42.3001V36.1623C42.4083 36.4228 42.5314 36.6707 42.6691 36.9061C43.2381 37.9067 44.0991 38.7224 45.1447 39.2458C46.1596 39.7383 47.4358 39.9846 48.9888 39.9846C50.511 39.9846 51.7873 39.6922 52.8175 39.1226C53.8169 38.5685 54.6319 37.7373 55.1547 36.7214C55.6928 35.6902 55.9696 34.3818 55.9696 32.7656C55.9696 31.9243 55.881 31.154 55.7029 30.4546L61.2426 37.8134L61.6608 37.498C62.2046 38.2292 62.919 38.8299 63.75 39.2458C64.7648 39.7383 66.0411 39.9846 67.5941 39.9846C69.1163 39.9846 70.3925 39.6922 71.4228 39.1226C72.4222 38.5685 73.2372 37.7373 73.76 36.7214C73.8942 36.4642 74.0121 36.1898 74.1136 35.8976V39.7537H85V36.3674H78.3728V25.993H76.9119L83.813 20.787L68.1647 0L54.3397 10.4292C54.3194 10.4143 54.2989 10.3996 54.2782 10.3851C53.3556 9.72323 52.0179 9.39999 50.265 9.39999C48.835 9.39999 47.6972 9.5847 46.8822 9.93872C46.1288 10.2312 45.4984 10.7545 45.0371 11.4164C44.6373 12.0013 44.422 12.7093 44.422 13.4174C44.3913 14.4487 44.8372 15.4184 45.6214 16.0803C45.7994 16.241 46.0059 16.3938 46.2407 16.5389ZM49.5931 14.0099L51.4616 12.6003C51.3972 12.5214 51.3265 12.4501 51.2491 12.3861C50.8954 12.0937 50.4342 11.9551 49.8345 11.9551C49.3424 11.9551 48.9734 12.0629 48.7274 12.263C48.4967 12.4477 48.343 12.7247 48.3584 13.0326C48.3584 13.2635 48.4814 13.479 48.6659 13.6175C48.8169 13.7571 49.126 13.8879 49.5931 14.0099ZM74.1136 28.1039L73.4979 28.5684C73.7454 28.9553 73.9509 29.3764 74.1136 29.8317V28.1039ZM70.1405 31.1011L64.8799 35.0696C64.9984 35.3936 65.1499 35.6672 65.3338 35.8903C65.8412 36.4906 66.5485 36.7984 67.4403 36.7984C68.3475 36.7984 69.0548 36.5059 69.5622 35.9056C70.0696 35.3053 70.3157 34.2433 70.3157 32.704C70.3157 32.093 70.2573 31.5576 70.1405 31.1011ZM61.3637 36.9512L46.4557 17.1476L68.0437 0.862252L82.9517 20.6658L61.3637 36.9512ZM46.7285 35.8903C46.2211 35.2746 45.9597 34.2741 45.9597 32.8887C45.9597 31.488 46.2211 30.4875 46.7439 29.8872C47.2666 29.2869 48.0201 28.9483 48.8043 28.9791C49.6961 28.9791 50.4034 29.2715 50.9262 29.8718C51.449 30.4568 51.7104 31.4111 51.7104 32.704C51.7104 34.2433 51.4644 35.3053 50.9569 35.9056C50.4495 36.5059 49.7422 36.7984 48.835 36.7984C47.9432 36.7984 47.2359 36.4906 46.7285 35.8903Z" fill="#A2B4C7"/>
<path fill-rule="evenodd" clip-rule="evenodd" d="M0.968705 9.64627V23.3916H5.22793V17.8042H5.59696C5.96599 17.8042 6.33502 17.912 6.64255 18.1275C6.87319 18.2968 7.11921 18.6508 7.41136 19.1895L9.68705 23.4224H14.5152L12.4548 19.4358C12.2856 19.128 12.0857 18.8355 11.8551 18.5738C11.6552 18.3122 11.4399 18.0659 11.1785 17.8504C10.8403 17.6349 10.4559 17.4502 10.0715 17.3425C10.5942 17.2501 11.1017 17.0654 11.563 16.8037C12.7469 16.1265 13.4389 14.8335 13.3927 13.479C13.4081 12.6786 13.1928 11.9089 12.7469 11.2471C12.3471 10.6468 11.7475 10.2004 11.0709 9.9849C10.379 9.75402 9.36415 9.64627 8.05716 9.64627H0.968705ZM7.02695 15.2183H5.22793V12.4323H7.10384C7.87265 12.4323 8.41082 12.5554 8.68759 12.7863C9.19501 13.2635 9.25651 14.0485 8.84135 14.6026C8.67221 14.8335 8.42619 14.9874 8.14942 15.0336C7.78039 15.126 7.41136 15.1875 7.02695 15.2183Z" fill="#A2B4C7"/>
<path fill-rule="evenodd" clip-rule="evenodd" d="M4.04396 34.9359L0 35.1976C0.12301 36.5829 0.630427 37.7219 1.53763 38.6455C2.44483 39.5536 4.05933 40 6.39653 40C7.71889 40 8.82598 39.7999 9.70242 39.4151C10.5327 39.0611 11.2401 38.4762 11.7475 37.7219C11.8371 37.5859 11.9191 37.4455 11.9932 37.3014C12.6479 38.2588 13.4077 38.9417 14.2846 39.3381C15.2225 39.7691 16.4526 39.9846 17.9441 39.9846C19.1742 39.9846 20.189 39.7999 20.9886 39.4459C21.7728 39.0919 22.4647 38.5531 22.9875 37.8605C23.5564 37.0755 23.9716 36.1827 24.1715 35.2438L20.4504 34.1201C20.2659 34.9821 19.9584 35.644 19.5432 36.1211C19.1281 36.5675 18.513 36.7984 17.6981 36.7984C16.8524 36.7984 16.2066 36.5213 15.7453 35.9518C15.284 35.3823 15.0534 34.3356 15.0534 32.8118C15.0534 31.5804 15.2533 30.6722 15.6377 30.1027C16.1451 29.3177 16.8831 28.9329 17.8518 28.9329C18.2516 28.9329 18.6514 29.0099 19.0051 29.1946C19.3587 29.3793 19.6509 29.6256 19.8815 29.9488C20.066 30.2259 20.2044 30.5491 20.2967 30.8723L24.0485 30.0412C23.5564 28.5943 22.8184 27.5168 21.8343 26.8088C20.8348 26.1161 19.4817 25.7621 17.7442 25.7621C15.53 25.7621 13.8233 26.3778 12.6085 27.5938C12.2804 27.9222 11.9972 28.29 11.7585 28.6967C11.4844 27.8579 11.0263 27.2116 10.379 26.7472C9.4564 26.0853 8.11867 25.7621 6.36577 25.7621C4.93578 25.7621 3.79794 25.9468 2.983 26.3008C2.22956 26.5933 1.59913 27.1166 1.13784 27.7785C0.738061 28.3634 0.522793 29.0714 0.522793 29.7795C0.492041 30.8108 0.937952 31.7805 1.72214 32.4424C2.50633 33.1504 3.84407 33.7045 5.70459 34.1201C6.85781 34.3664 7.5805 34.6435 7.88802 34.9205C8.18017 35.1514 8.34931 35.5054 8.34931 35.8748C8.34931 36.2597 8.1648 36.6137 7.85727 36.86C7.53437 37.1524 7.05771 37.2909 6.45803 37.2909C5.64309 37.2909 5.01266 36.9985 4.58213 36.4444C4.30535 36.0903 4.13622 35.5978 4.04396 34.9359ZM11.2129 29.9178L8.01103 30.1027C7.9034 29.487 7.68813 29.0406 7.33448 28.7482C6.9962 28.4557 6.51954 28.3172 5.91986 28.3326C5.42782 28.3326 5.05879 28.4403 4.81277 28.6558C4.56675 28.8405 4.42836 29.1176 4.44374 29.4254C4.44374 29.6563 4.56675 29.8718 4.75127 30.0104C4.95116 30.1951 5.42782 30.3644 6.18126 30.5183C8.04179 30.9185 9.36415 31.3187 10.1791 31.7343C10.4099 31.852 10.6222 31.9771 10.8159 32.1096C10.865 31.3063 10.9971 30.5754 11.2129 29.9178Z" fill="#A2B4C7"/>
</svg>
