<svg width="30" height="30" viewBox="0 0 30 30" fill="none" xmlns="http://www.w3.org/2000/svg">
<path d="M29.1361 17.6177C30.288 16.4658 30.288 14.581 29.1361 13.4292L25.7854 10.0784C25.3665 9.65956 25.5759 9.03129 26.0995 8.92658C27.0419 8.61244 28.089 8.1936 28.6126 7.67004C30.0786 6.20407 30.0786 3.9004 28.6126 2.43443C27.1466 0.968464 24.843 0.968464 23.377 2.43443C22.8534 2.95799 22.4346 4.00511 22.1204 4.94752C22.0157 5.47108 21.2827 5.57579 20.9686 5.26166L16.5707 0.863752C15.4189 -0.28808 13.5341 -0.28808 12.3822 0.863752L9.86913 3.37684C9.24086 4.00511 9.34557 5.15695 10.1833 5.57579C10.9163 5.88993 11.5445 6.30878 11.8587 6.62291C13.3246 8.08888 13.3246 10.3925 11.8587 11.8585C10.3927 13.3245 8.08903 13.3245 6.62306 11.8585C6.30892 11.5444 5.89007 10.9161 5.57594 10.1831C5.05238 9.45014 4.00526 9.24072 3.37699 9.86899L0.863897 12.3821C-0.287935 13.5339 -0.287935 15.4187 0.863897 16.5706L13.4293 29.136C14.5812 30.2878 16.466 30.2878 17.6178 29.136L29.1361 17.6177Z" fill="url(#paint0_linear_2_378)"/>
<defs>
<linearGradient id="paint0_linear_2_378" x1="2.28882e-05" y1="-0.00012207" x2="30" y2="29.9999" gradientUnits="userSpaceOnUse">
<stop stop-color="#EC8282"/>
<stop offset="1" stop-color="#82B3EC"/>
</linearGradient>
</defs>
</svg>
