<svg width="50" height="50" viewBox="0 0 50 50" fill="none" xmlns="http://www.w3.org/2000/svg">
<rect width="50" height="50" rx="25" fill="url(#paint0_linear_6_132)"/>
<path fill-rule="evenodd" clip-rule="evenodd" d="M30.15 34.7792C30.4854 35.0072 30.9177 35.0642 31.3031 34.9242C31.6885 34.7832 31.9718 34.4672 32.0572 34.0842C32.9624 30.0002 35.1582 19.6632 35.9821 15.9481C36.0446 15.6681 35.9405 15.3771 35.7113 15.1901C35.4822 15.0031 35.1645 14.9491 34.8811 15.0501C30.5135 16.6022 17.0628 21.4472 11.565 23.4002C11.216 23.5242 10.989 23.8462 11.0004 24.1992C11.0129 24.5532 11.2608 24.8602 11.6181 24.9632C14.0837 25.6712 17.3201 26.6562 17.3201 26.6562C17.3201 26.6562 18.8325 31.0412 19.6211 33.2712C19.72 33.5512 19.9481 33.7712 20.2492 33.8472C20.5492 33.9222 20.87 33.8432 21.0939 33.6402C22.3606 32.4922 24.3189 30.7172 24.3189 30.7172C24.3189 30.7172 28.0396 33.3362 30.15 34.7792V34.7792ZM18.6815 26.1022L20.4304 31.6402L20.8189 28.1332C20.8189 28.1332 27.5761 22.2822 31.4281 18.9472C31.5406 18.8492 31.5562 18.6852 31.4624 18.5702C31.3697 18.4552 31.1989 18.4282 31.0708 18.5062C26.6063 21.2432 18.6815 26.1022 18.6815 26.1022Z" fill="white"/>
<defs>
<linearGradient id="paint0_linear_6_132" x1="0" y1="0" x2="50" y2="50" gradientUnits="userSpaceOnUse">
<stop stop-color="#EC8282"/>
<stop offset="1" stop-color="#82B3EC"/>
</linearGradient>
</defs>
</svg>
